<?xml version="1.0" encoding="utf-8"?>
<!-- Generator: Adobe Illustrator 23.0.1, SVG Export Plug-In . SVG Version: 6.00 Build 0)  -->
<svg version="1.1" id="Layer_1" xmlns="http://www.w3.org/2000/svg" xmlns:xlink="http://www.w3.org/1999/xlink" x="0px" y="0px"
	 viewBox="0 0 388 665" style="enable-background:new 0 0 388 665;" xml:space="preserve">
<style type="text/css">
	.st0{fill:none;stroke:#FFFFFF;stroke-width:3;stroke-linecap:round;stroke-miterlimit:10;}
	.st1{fill:none;stroke:#FFFFFF;stroke-miterlimit:10;}
</style>
<circle class="st0" cx="21" cy="644" r="7.5"/>
<line class="st0" x1="34.5" y1="643.5" x2="352.5" y2="643.5"/>
<line class="st0" x1="42.5" y1="627.5" x2="173.5" y2="517.5"/>
<line class="st0" x1="344.5" y1="627.5" x2="214.5" y2="517.5"/>
<path class="st0" d="M214.5,544.6l91.3,72.9c4.1,3.3,1.8,9.9-3.5,9.9H194.5H86.6c-5.3,0-7.6-6.6-3.5-9.9l91.3-72.9"/>
<g>
	<line class="st0" x1="199.1" y1="617.5" x2="157.4" y2="571.1"/>
	<line class="st0" x1="135.9" y1="588.3" x2="162.1" y2="617.5"/>
	<line class="st0" x1="143.6" y1="617.5" x2="125.1" y2="596.9"/>
	<line class="st0" x1="114.3" y1="605.5" x2="125.1" y2="617.5"/>
	<line class="st0" x1="125.1" y1="596.9" x2="143.6" y2="617.5"/>
	<line class="st0" x1="162.1" y1="617.5" x2="135.9" y2="588.3"/>
	<line class="st0" x1="146.7" y1="579.7" x2="180.6" y2="617.5"/>
	<line class="st0" x1="273.1" y1="617.5" x2="231.1" y2="570.6"/>
	<line class="st0" x1="217.6" y1="617.5" x2="168.2" y2="562.5"/>
	<line class="st0" x1="231.1" y1="570.6" x2="273.1" y2="617.5"/>
	<line class="st0" x1="236.1" y1="617.5" x2="179" y2="553.8"/>
	<line class="st0" x1="193" y1="548.9" x2="254.6" y2="617.5"/>
</g>
<line class="st1" x1="125.1" y1="617.5" x2="114.3" y2="605.5"/>
<line class="st0" x1="282.6" y1="608" x2="291.1" y2="617.5"/>
<circle class="st0" cx="21" cy="644" r="18.5"/>
<circle class="st0" cx="367" cy="644" r="7.5"/>
<circle class="st0" cx="367" cy="644" r="18.5"/>
</svg>
