<?xml version="1.0" encoding="utf-8"?>
<!-- Generator: Adobe Illustrator 23.0.1, SVG Export Plug-In . SVG Version: 6.00 Build 0)  -->
<svg version="1.1" id="Layer_1" xmlns="http://www.w3.org/2000/svg" xmlns:xlink="http://www.w3.org/1999/xlink" x="0px" y="0px"
	 viewBox="0 0 388 665" style="enable-background:new 0 0 388 665;" xml:space="preserve">
<style type="text/css">
	.st0{fill:none;}
	.st1{fill:none;stroke:#FFFFFF;stroke-width:3;stroke-linecap:round;stroke-miterlimit:10;}
	.st2{fill:none;stroke:#FFFFFF;stroke-width:3;stroke-linecap:round;stroke-miterlimit:10;stroke-dasharray:6.9802,9.9718;}
</style>
<line class="st0" x1="125.1" y1="47.5" x2="114.3" y2="59.5"/>
<circle class="st1" cx="194" cy="511" r="14.5"/>
<line class="st1" x1="26.5" y1="633.5" x2="183.1" y2="349.6"/>
<line class="st1" x1="361.5" y1="633.5" x2="210.1" y2="359.1"/>
<circle class="st1" cx="193" cy="511" r="29.5"/>
<line class="st1" x1="193" y1="481.5" x2="193.5" y2="352.5"/>
<g>
	<g>
		<path class="st1" d="M83.8,94.4c0,1.3-0.1,2.4-0.2,3.5"/>
		<path class="st2" d="M80.1,107.1c-2.9,4.5-6.3,8.1-6.3,16.8c0,14.8,10,14.8,10,29.5c0,14.8-10,14.8-10,29.5
			c0,14.8,10,14.8,10,29.5c0,14.8-10,14.8-10,29.5c0,14.8,10,14.8,10,29.5c0,14.8-10,14.8-10,29.5c0,14.8,10,14.8,10,29.5
			c0,14.8-10,14.8-10,29.5c0,14.8,10,14.8,10,29.5c0,14.8-10,14.8-10,29.5c0,14.8,10,14.8,10,29.5c0,14.8-10,14.8-10,29.6
			c0,14.8,10,14.8,10,29.5c0,14.8-10,14.8-10,29.6c0,11.3,5.9,14,8.6,21.2"/>
		<path class="st1" d="M83.6,563.6c0.1,1.1,0.2,2.2,0.2,3.5"/>
	</g>
</g>
<g>
	<g>
		<path class="st1" d="M100.9,94.4c0,1.3-0.1,2.4-0.2,3.5"/>
		<path class="st2" d="M97.2,107.1c-2.9,4.5-6.3,8.1-6.3,16.8c0,14.8,10,14.8,10,29.5c0,14.8-10,14.8-10,29.5
			c0,14.8,10,14.8,10,29.5c0,14.8-10,14.8-10,29.5c0,14.8,10,14.8,10,29.5c0,14.8-10,14.8-10,29.5c0,14.8,10,14.8,10,29.5
			c0,14.8-10,14.8-10,29.5c0,14.8,10,14.8,10,29.5c0,14.8-10,14.8-10,29.5c0,14.8,10,14.8,10,29.5c0,14.8-10,14.8-10,29.6
			c0,14.8,10,14.8,10,29.5c0,14.8-10,14.8-10,29.6c0,11.3,5.9,14,8.6,21.2"/>
		<path class="st1" d="M100.7,563.6c0.1,1.1,0.2,2.2,0.2,3.5"/>
	</g>
</g>
<g>
	<g>
		<path class="st1" d="M314.2,94.4c0,1.3-0.1,2.4-0.2,3.5"/>
		<path class="st2" d="M310.6,107.1c-2.9,4.5-6.3,8.1-6.3,16.8c0,14.8,10,14.8,10,29.5c0,14.8-10,14.8-10,29.5
			c0,14.8,10,14.8,10,29.5c0,14.8-10,14.8-10,29.5c0,14.8,10,14.8,10,29.5c0,14.8-10,14.8-10,29.5c0,14.8,10,14.8,10,29.5
			c0,14.8-10,14.8-10,29.5c0,14.8,10,14.8,10,29.5c0,14.8-10,14.8-10,29.5c0,14.8,10,14.8,10,29.5c0,14.8-10,14.8-10,29.6
			c0,14.8,10,14.8,10,29.5c0,14.8-10,14.8-10,29.6c0,11.3,5.9,14,8.6,21.2"/>
		<path class="st1" d="M314,563.6c0.1,1.1,0.2,2.2,0.2,3.5"/>
	</g>
</g>
<g>
	<g>
		<path class="st1" d="M297.1,94.4c0,1.3-0.1,2.4-0.2,3.5"/>
		<path class="st2" d="M293.5,107.1c-2.9,4.5-6.3,8.1-6.3,16.8c0,14.8,10,14.8,10,29.5c0,14.8-10,14.8-10,29.5
			c0,14.8,10,14.8,10,29.5c0,14.8-10,14.8-10,29.5c0,14.8,10,14.8,10,29.5c0,14.8-10,14.8-10,29.5c0,14.8,10,14.8,10,29.5
			c0,14.8-10,14.8-10,29.5c0,14.8,10,14.8,10,29.5c0,14.8-10,14.8-10,29.5c0,14.8,10,14.8,10,29.5c0,14.8-10,14.8-10,29.6
			c0,14.8,10,14.8,10,29.5c0,14.8-10,14.8-10,29.6c0,11.3,5.9,14,8.6,21.2"/>
		<path class="st1" d="M296.9,563.6c0.1,1.1,0.2,2.2,0.2,3.5"/>
	</g>
</g>
<line class="st1" x1="282.6" y1="460.4" x2="213.5" y2="340.5"/>
</svg>
