<?xml version="1.0" encoding="utf-8"?>
<!-- Generator: Adobe Illustrator 23.0.1, SVG Export Plug-In . SVG Version: 6.00 Build 0)  -->
<svg version="1.1" id="Layer_1" xmlns="http://www.w3.org/2000/svg" xmlns:xlink="http://www.w3.org/1999/xlink" x="0px" y="0px"
	 viewBox="0 0 388 665" style="enable-background:new 0 0 388 665;" xml:space="preserve">
<style type="text/css">
	.st0{fill:none;stroke:#000000;stroke-width:3;stroke-linecap:round;stroke-miterlimit:10;}
	.st1{fill:none;}
	.st2{fill:none;stroke:#000000;stroke-width:3;stroke-linecap:round;stroke-miterlimit:10;stroke-dasharray:6.9802,9.9718;}
</style>
<circle class="st0" cx="194" cy="332" r="7.5"/>
<circle class="st0" cx="21" cy="21" r="7.5"/>
<circle class="st0" cx="194" cy="154" r="14.5"/>
<line class="st0" x1="34.5" y1="21.5" x2="352.5" y2="21.5"/>
<line class="st0" x1="26.5" y1="31.5" x2="176.2" y2="302.8"/>
<line class="st0" x1="361.5" y1="31.5" x2="204.6" y2="315.9"/>
<circle class="st0" cx="193.5" cy="332.5" r="20"/>
<line class="st0" x1="42.5" y1="37.5" x2="173.5" y2="147.5"/>
<line class="st0" x1="344.5" y1="37.5" x2="214.5" y2="147.5"/>
<path class="st0" d="M214.5,120.4l91.3-72.9c4.1-3.3,1.8-9.9-3.5-9.9H194.5H86.6c-5.3,0-7.6,6.6-3.5,9.9l91.3,72.9"/>
<g>
	<line class="st0" x1="199.1" y1="47.5" x2="157.4" y2="93.9"/>
	<line class="st0" x1="135.9" y1="76.7" x2="162.1" y2="47.5"/>
	<line class="st0" x1="143.6" y1="47.5" x2="125.1" y2="68.1"/>
	<line class="st0" x1="114.3" y1="59.5" x2="125.1" y2="47.5"/>
	<line class="st0" x1="125.1" y1="68.1" x2="143.6" y2="47.5"/>
	<line class="st0" x1="162.1" y1="47.5" x2="135.9" y2="76.7"/>
	<path class="st0" d="M162.1,47.5"/>
	<line class="st0" x1="146.7" y1="85.3" x2="180.6" y2="47.5"/>
	<path class="st0" d="M146.7,85.3"/>
	<path class="st0" d="M135.9,76.7"/>
	<line class="st0" x1="273.1" y1="47.5" x2="231.1" y2="94.4"/>
	<line class="st0" x1="217.6" y1="47.5" x2="168.2" y2="102.5"/>
	<line class="st0" x1="231.1" y1="94.4" x2="273.1" y2="47.5"/>
	<line class="st0" x1="236.1" y1="47.5" x2="179" y2="111.2"/>
	<line class="st0" x1="193" y1="116.1" x2="254.6" y2="47.5"/>
</g>
<line class="st1" x1="125.1" y1="47.5" x2="114.3" y2="59.5"/>
<line class="st0" x1="282.6" y1="57" x2="291.1" y2="47.5"/>
<circle class="st0" cx="21" cy="21" r="18.5"/>
<circle class="st0" cx="367" cy="21" r="7.5"/>
<circle class="st0" cx="367" cy="21" r="18.5"/>
<circle class="st0" cx="193" cy="154" r="29.5"/>
<line class="st0" x1="193" y1="183.5" x2="193.5" y2="312.5"/>
<circle class="st0" cx="21" cy="644" r="7.5"/>
<circle class="st0" cx="194" cy="511" r="14.5"/>
<line class="st0" x1="34.5" y1="643.5" x2="352.5" y2="643.5"/>
<line class="st0" x1="26.5" y1="633.5" x2="183.1" y2="349.6"/>
<line class="st0" x1="361.5" y1="633.5" x2="210.1" y2="359.1"/>
<line class="st0" x1="42.5" y1="627.5" x2="173.5" y2="517.5"/>
<line class="st0" x1="344.5" y1="627.5" x2="214.5" y2="517.5"/>
<path class="st0" d="M214.5,544.6l91.3,72.9c4.1,3.3,1.8,9.9-3.5,9.9H194.5H86.6c-5.3,0-7.6-6.6-3.5-9.9l91.3-72.9"/>
<g>
	<line class="st0" x1="199.1" y1="617.5" x2="157.4" y2="571.1"/>
	<line class="st0" x1="135.9" y1="588.3" x2="162.1" y2="617.5"/>
	<line class="st0" x1="143.6" y1="617.5" x2="125.1" y2="596.9"/>
	<line class="st0" x1="114.3" y1="605.5" x2="125.1" y2="617.5"/>
	<line class="st0" x1="125.1" y1="596.9" x2="143.6" y2="617.5"/>
	<line class="st0" x1="162.1" y1="617.5" x2="135.9" y2="588.3"/>
	<path class="st0" d="M162.1,617.5"/>
	<line class="st0" x1="146.7" y1="579.7" x2="180.6" y2="617.5"/>
	<path class="st0" d="M146.7,579.7"/>
	<path class="st0" d="M135.9,588.3"/>
	<line class="st0" x1="273.1" y1="617.5" x2="231.1" y2="570.6"/>
	<line class="st0" x1="217.6" y1="617.5" x2="168.2" y2="562.5"/>
	<line class="st0" x1="231.1" y1="570.6" x2="273.1" y2="617.5"/>
	<line class="st0" x1="236.1" y1="617.5" x2="179" y2="553.8"/>
	<line class="st0" x1="193" y1="548.9" x2="254.6" y2="617.5"/>
</g>
<line class="st1" x1="125.1" y1="617.5" x2="114.3" y2="605.5"/>
<line class="st0" x1="282.6" y1="608" x2="291.1" y2="617.5"/>
<circle class="st0" cx="21" cy="644" r="18.5"/>
<circle class="st0" cx="367" cy="644" r="7.5"/>
<circle class="st0" cx="367" cy="644" r="18.5"/>
<circle class="st0" cx="193" cy="511" r="29.5"/>
<line class="st0" x1="193" y1="481.5" x2="193.5" y2="352.5"/>
<g>
	<g>
		<path class="st0" d="M83.8,94.4c0,1.3-0.1,2.4-0.2,3.5"/>
		<path class="st2" d="M80.1,107.1c-2.9,4.5-6.3,8.1-6.3,16.8c0,14.8,10,14.8,10,29.5c0,14.8-10,14.8-10,29.5
			c0,14.8,10,14.8,10,29.5c0,14.8-10,14.8-10,29.5c0,14.8,10,14.8,10,29.5c0,14.8-10,14.8-10,29.5c0,14.8,10,14.8,10,29.5
			c0,14.8-10,14.8-10,29.5c0,14.8,10,14.8,10,29.5c0,14.8-10,14.8-10,29.5c0,14.8,10,14.8,10,29.5c0,14.8-10,14.8-10,29.6
			c0,14.8,10,14.8,10,29.5c0,14.8-10,14.8-10,29.6c0,11.3,5.9,14,8.6,21.2"/>
		<path class="st0" d="M83.6,563.6c0.1,1.1,0.2,2.2,0.2,3.5"/>
	</g>
</g>
<g>
	<g>
		<path class="st0" d="M100.9,94.4c0,1.3-0.1,2.4-0.2,3.5"/>
		<path class="st2" d="M97.2,107.1c-2.9,4.5-6.3,8.1-6.3,16.8c0,14.8,10,14.8,10,29.5c0,14.8-10,14.8-10,29.5
			c0,14.8,10,14.8,10,29.5c0,14.8-10,14.8-10,29.5c0,14.8,10,14.8,10,29.5c0,14.8-10,14.8-10,29.5c0,14.8,10,14.8,10,29.5
			c0,14.8-10,14.8-10,29.5c0,14.8,10,14.8,10,29.5c0,14.8-10,14.8-10,29.5c0,14.8,10,14.8,10,29.5c0,14.8-10,14.8-10,29.6
			c0,14.8,10,14.8,10,29.5c0,14.8-10,14.8-10,29.6c0,11.3,5.9,14,8.6,21.2"/>
		<path class="st0" d="M100.7,563.6c0.1,1.1,0.2,2.2,0.2,3.5"/>
	</g>
</g>
<g>
	<g>
		<path class="st0" d="M314.2,94.4c0,1.3-0.1,2.4-0.2,3.5"/>
		<path class="st2" d="M310.6,107.1c-2.9,4.5-6.3,8.1-6.3,16.8c0,14.8,10,14.8,10,29.5c0,14.8-10,14.8-10,29.5
			c0,14.8,10,14.8,10,29.5c0,14.8-10,14.8-10,29.5c0,14.8,10,14.8,10,29.5c0,14.8-10,14.8-10,29.5c0,14.8,10,14.8,10,29.5
			c0,14.8-10,14.8-10,29.5c0,14.8,10,14.8,10,29.5c0,14.8-10,14.8-10,29.5c0,14.8,10,14.8,10,29.5c0,14.8-10,14.8-10,29.6
			c0,14.8,10,14.8,10,29.5c0,14.8-10,14.8-10,29.6c0,11.3,5.9,14,8.6,21.2"/>
		<path class="st0" d="M314,563.6c0.1,1.1,0.2,2.2,0.2,3.5"/>
	</g>
</g>
<g>
	<g>
		<path class="st0" d="M297.1,94.4c0,1.3-0.1,2.4-0.2,3.5"/>
		<path class="st2" d="M293.5,107.1c-2.9,4.5-6.3,8.1-6.3,16.8c0,14.8,10,14.8,10,29.5c0,14.8-10,14.8-10,29.5
			c0,14.8,10,14.8,10,29.5c0,14.8-10,14.8-10,29.5c0,14.8,10,14.8,10,29.5c0,14.8-10,14.8-10,29.5c0,14.8,10,14.8,10,29.5
			c0,14.8-10,14.8-10,29.5c0,14.8,10,14.8,10,29.5c0,14.8-10,14.8-10,29.5c0,14.8,10,14.8,10,29.5c0,14.8-10,14.8-10,29.6
			c0,14.8,10,14.8,10,29.5c0,14.8-10,14.8-10,29.6c0,11.3,5.9,14,8.6,21.2"/>
		<path class="st0" d="M296.9,563.6c0.1,1.1,0.2,2.2,0.2,3.5"/>
	</g>
</g>
<line class="st0" x1="110" y1="214.3" x2="173.5" y2="324.5"/>
<line class="st0" x1="282.6" y1="460.4" x2="213.5" y2="340.5"/>
</svg>
