<?xml version="1.0" encoding="utf-8"?>
<!-- Generator: Adobe Illustrator 23.0.1, SVG Export Plug-In . SVG Version: 6.00 Build 0)  -->
<svg version="1.1" id="Layer_1" xmlns="http://www.w3.org/2000/svg" xmlns:xlink="http://www.w3.org/1999/xlink" x="0px" y="0px"
	 viewBox="0 0 401.2 836.7" style="enable-background:new 0 0 401.2 836.7;" xml:space="preserve">
<style type="text/css">
	.st0{fill:none;stroke:#000000;stroke-width:2;stroke-linecap:round;stroke-miterlimit:10;}
	.st1{fill:none;stroke:#000000;stroke-linecap:round;stroke-miterlimit:10;}
</style>
<circle class="st1" cx="376.1" cy="137.5" r="12.1"/>
<circle class="st1" cx="376.1" cy="137.5" r="23.6"/>
<path class="st1" d="M200.6,49.6c-110,0-199.1,39.4-199.1,87.9s89.1,87.9,199.1,87.9c82.5,0,153.2-22.1,183.5-53.7"/>
<path class="st1" d="M399.7,137.5c0-48.6-89.1-87.9-199.1-87.9"/>
<line class="st1" x1="200.6" y1="1.5" x2="200.6" y2="167.1"/>
<path class="st1" d="M59.5,152.7c-7-6.7-10.9-14-10.9-21.7c0-32.2,68-58.3,151.9-58.3"/>
<path class="st1" d="M230.1,73.7c69.8,5.3,122.5,28.9,122.5,57.2c0,32.2-68,58.3-151.9,58.3c-40.3,0-76.9-6-104.1-15.8"/>
<circle class="st1" cx="376.1" cy="137.5" r="6.6"/>
<line class="st1" x1="376.1" y1="125.4" x2="376.1" y2="149.6"/>
</svg>
