<?xml version="1.0" encoding="utf-8"?>
<!-- Generator: Adobe Illustrator 23.0.1, SVG Export Plug-In . SVG Version: 6.00 Build 0)  -->
<svg version="1.1" id="Layer_1" xmlns="http://www.w3.org/2000/svg" xmlns:xlink="http://www.w3.org/1999/xlink" x="0px" y="0px"
	 viewBox="0 0 401.2 836.7" style="enable-background:new 0 0 401.2 836.7;" xml:space="preserve">
<style type="text/css">
	.st0{fill:none;stroke:#000000;stroke-linecap:round;stroke-miterlimit:10;}
</style>
<circle class="st0" cx="25.1" cy="703.7" r="12.1"/>
<line class="st0" x1="218" y1="569.6" x2="343.3" y2="676.6"/>
<line class="st0" x1="183.2" y1="569.6" x2="57.9" y2="676.6"/>
<circle class="st0" cx="376.1" cy="703.7" r="23.6"/>
<circle class="st0" cx="25.1" cy="703.7" r="23.6"/>
<path class="st0" d="M271.1,644.8c-21.1-4.3-45-6.7-70.5-6.7c-83.9,0-151.9,26.3-151.9,58.7c0,32.4,68,58.7,151.9,58.7
	s151.9-26.3,151.9-58.7c0-18.2-21.5-34.5-55.3-45.3"/>
<circle class="st0" cx="376.1" cy="703.7" r="12.1"/>
<circle class="st0" cx="25.1" cy="703.7" r="6.6"/>
<line class="st0" x1="25.1" y1="691.6" x2="25.1" y2="715.8"/>
<circle class="st0" cx="376.1" cy="703.7" r="6.6"/>
<line class="st0" x1="376.1" y1="691.6" x2="376.1" y2="715.8"/>
</svg>
