<?xml version="1.0" encoding="utf-8"?>
<!-- Generator: Adobe Illustrator 23.0.1, SVG Export Plug-In . SVG Version: 6.00 Build 0)  -->
<svg version="1.1" id="Layer_1" xmlns="http://www.w3.org/2000/svg" xmlns:xlink="http://www.w3.org/1999/xlink" x="0px" y="0px"
	 viewBox="0 0 169 57" style="enable-background:new 0 0 169 57;" xml:space="preserve">
<style type="text/css">
	.st0{fill:#31313A;}
	.st1{fill:#FFFFFF;}
	.st2{stroke:#231F20;stroke-miterlimit:10;}
	.st3{fill:#010101;}
	.st4{fill:#51728C;}
</style>
<g>
	<g>
		<path class="st1" d="M64.6,7.1L72.4,0h-9.8L36.2,24L10.1,0.2L9.9,0H0l7.9,7.2v42.7L0.1,57h9.8l20.3-18.5l1.3-1.2l-4.5-4.9
			L14.5,43.9V13.3l47.9,43.6l0.2,0.2h9.8l-7.8-7.1V7.1z M58,43.9L41.1,28.5l16.8-15.3L58,43.9z"/>
	</g>
</g>
<g>
	<path class="st1" d="M97.5,14v5.5c0,0.8,0.1,1.4,0.4,1.7c0.4,0.5,0.9,0.8,1.6,0.8c0.7,0,1.2-0.3,1.6-0.8c0.3-0.4,0.4-0.9,0.4-1.7
		V14h1.4v5.9c0,1-0.3,1.8-0.9,2.4c-0.7,0.7-1.5,1-2.5,1s-1.8-0.3-2.5-1c-0.6-0.6-0.9-1.4-0.9-2.4V14H97.5z"/>
	<path class="st1" d="M110.8,23.2v-9.8l6.7,7V14h1.4v9.7l-6.7-7v6.4H110.8z"/>
	<path class="st1" d="M126.3,23.2l1.9-9.9l3.1,7.1l3.3-7.1l1.7,9.9H135l-0.9-5.5l-2.7,6l-2.6-6l-1,5.5H126.3z"/>
	<path class="st1" d="M149,15.3h-3.7v2.2h3.6v1.3h-3.6v3.1h3.7v1.3H144V14h5.1V15.3z"/>
	<path class="st1" d="M96.1,43.1V34h1.9c0.9,0,1.7,0.1,2.2,0.3c0.6,0.2,1.1,0.5,1.6,0.9c0.9,0.9,1.4,2,1.4,3.4
		c0,1.4-0.5,2.5-1.5,3.4c-0.5,0.4-1,0.7-1.6,0.9c-0.5,0.2-1.2,0.3-2.2,0.3H96.1z M97.5,41.8h0.6c0.6,0,1.1-0.1,1.6-0.2
		c0.4-0.1,0.8-0.4,1.1-0.7c0.7-0.6,1-1.4,1-2.4c0-1-0.3-1.8-1-2.4c-0.6-0.6-1.5-0.8-2.7-0.8h-0.6V41.8z"/>
	<path class="st1" d="M115.7,35.3H112v2.2h3.6v1.3H112v3.1h3.7v1.3h-5.1V34h5.1V35.3z"/>
	<path class="st1" d="M128.3,35.3l-1.1,0.7c-0.2-0.4-0.4-0.6-0.6-0.7c-0.2-0.1-0.5-0.2-0.8-0.2c-0.4,0-0.7,0.1-1,0.3
		c-0.3,0.2-0.4,0.5-0.4,0.8c0,0.4,0.3,0.8,1,1.1l0.9,0.4c0.7,0.3,1.3,0.7,1.6,1.1c0.3,0.4,0.5,1,0.5,1.6c0,0.8-0.3,1.5-0.8,2.1
		c-0.6,0.6-1.3,0.8-2.1,0.8c-0.8,0-1.5-0.2-2-0.7c-0.5-0.5-0.8-1.1-1-2l1.4-0.3c0.1,0.5,0.2,0.9,0.3,1.1c0.3,0.4,0.7,0.6,1.2,0.6
		c0.4,0,0.8-0.1,1.1-0.4c0.3-0.3,0.4-0.7,0.4-1.1c0-0.2,0-0.3-0.1-0.5c0-0.1-0.1-0.3-0.2-0.4c-0.1-0.1-0.2-0.2-0.4-0.4
		c-0.2-0.1-0.4-0.2-0.6-0.3l-0.9-0.4c-1.3-0.5-1.9-1.3-1.9-2.3c0-0.7,0.3-1.3,0.8-1.7c0.5-0.5,1.2-0.7,2-0.7
		C126.9,33.8,127.7,34.3,128.3,35.3z"/>
	<path class="st1" d="M137.2,34v9.2h-1.4V34H137.2z"/>
	<path class="st1" d="M149.8,38.4h3.8v0.3c0,0.7-0.1,1.3-0.2,1.8c-0.2,0.5-0.4,1-0.8,1.4c-0.9,1-1.9,1.4-3.2,1.4
		c-1.3,0-2.4-0.5-3.3-1.4c-0.9-0.9-1.4-2-1.4-3.3c0-1.3,0.5-2.5,1.4-3.4c0.9-0.9,2.1-1.4,3.4-1.4c0.7,0,1.4,0.1,2,0.4
		c0.6,0.3,1.2,0.8,1.8,1.4l-1,0.9c-0.8-1-1.7-1.5-2.7-1.5c-1,0-1.8,0.3-2.4,1c-0.7,0.7-1,1.5-1,2.5c0,1,0.4,1.9,1.1,2.5
		c0.7,0.6,1.4,0.9,2.2,0.9c0.7,0,1.3-0.2,1.8-0.7c0.5-0.5,0.8-1,0.9-1.7h-2.3V38.4z"/>
	<path class="st1" d="M160.9,43.1v-9.8l6.7,7V34h1.4v9.7l-6.7-7v6.4H160.9z"/>
</g>
</svg>
